<?xml version="1.0" encoding="utf-8"?>
<svg version="1.0" xmlns="http://www.w3.org/2000/svg" width="1254.000000pt" height="1254.000000pt" viewBox="0 0 1275 1275" preserveAspectRatio="xMidYMid meet">
  <rect width="1275" height="1275" style="stroke: rgb(0, 0, 0); stroke-width: 0px; fill: rgb(255, 255, 255);" rx="190" ry="190"/>
  <g transform="matrix(0.09997, 0, 0, -0.099967, 9.872174, 1263.501709)" fill="#000000" stroke="none">
    <g>
      <ellipse style="stroke: rgb(0, 0, 0); fill: rgb(255, 194, 25);" cx="9599.74" cy="-3763.1" rx="1080" ry="1080" transform="matrix(1, 0, 0, -1, 0, 0)"/>
      <path d="M1590 12524 c-544 -74 -1038 -401 -1325 -879 -111 -185 -198 -414 -241 -635 -18 -92 -19 -260 -22 -4675 -2 -3286 0 -4611 8 -4690 49 -484 310 -951 705 -1260 221 -173 497 -298 786 -357 l114 -23 4655 0 4655 0 115 23 c758 154 1344 750 1477 1502 17 101 18 276 18 4740 l0 4635 -22 120 c-51 278 -187 580 -363 808 -23 28 -87 99 -143 156 -303 307 -683 494 -1102 541 -59 6 -1657 10 -4650 9 -3874 -1 -4576 -3 -4665 -15z m7610 -2779 c560 -85 1044 -501 1219 -1048 70 -220 66 -89 66 -2032 0 -1385 -3 -1766 -13 -1825 -7 -41 -14 -76 -16 -78 -2 -1 -37 21 -78 50 -334 240 -798 306 -1188 170 -198 -69 -361 -171 -510 -321 -179 -180 -295 -393 -356 -656 -15 -63 -19 -119 -19 -263 l0 -182 -315 0 c-432 0 -438 -2 -640 -156 -335 -255 -423 -322 -615 -469 -115 -89 -338 -259 -494 -380 -157 -120 -303 -229 -326 -242 -85 -47 -174 -40 -241 20 -72 62 -68 37 -74 594 l-5 501 -31 38 c-43 54 -72 73 -129 83 -29 6 -437 10 -980 11 -769 0 -946 3 -1020 15 -343 56 -629 206 -865 452 -197 205 -338 469 -395 738 -34 160 -36 312 -33 1995 4 1847 -1 1719 70 1940 77 239 190 424 377 611 185 185 372 300 615 379 224 74 -20 68 3101 69 2392 1 2814 -1 2895 -14z m571 -4931 c537 -92 928 -572 896 -1099 -30 -490 -380 -897 -857 -995 -134 -28 -349 -24 -472 9 -423 112 -729 443 -803 869 -82 472 198 964 655 1150 70 28 216 67 285 75 77 10 210 6 296 -9z" style="fill: rgb(10, 29, 62);"/>
      <path d="M3320 6625 l0 -1615 230 0 230 0 2 1148 c0 631 1 1155 0 1165 -2 25 5 21 41 -20 138 -159 976 -1102 1037 -1166 l55 -59 110 123 c61 68 247 277 414 464 167 187 354 396 415 465 61 68 130 145 153 170 l43 45 0 -1167 0 -1168 230 0 230 0 0 1615 0 1615 -132 0 -133 -1 -266 -302 c-147 -166 -441 -500 -654 -742 -213 -242 -393 -446 -399 -453 -10 -10 -143 137 -661 728 -356 408 -657 747 -669 755 -15 11 -53 15 -148 15 l-128 0 0 -1615z" style="fill: rgb(9, 28, 61);"/>
      <path d="M6917 8234 c-4 -4 -7 -731 -7 -1616 l0 -1609 693 4 c753 3 705 0 900 63 364 117 717 432 891 797 223 468 214 1040 -25 1508 -223 436 -584 726 -1034 831 -86 20 -123 21 -750 25 -363 3 -664 1 -668 -3z m1163 -408 c292 -15 611 -205 812 -484 100 -139 185 -340 219 -522 20 -100 17 -348 -5 -450 -52 -250 -160 -454 -331 -626 -135 -137 -280 -227 -453 -283 -156 -51 -206 -56 -609 -56 l-373 0 0 1175 c0 646 0 1192 0 1212 l0 37 143 3 c156 3 480 0 597 -6z" style="fill: rgb(9, 28, 61);"/>
      <path d="M9865 4331 c-11 -5 -47 -37 -80 -70 l-60 -61 140 -140 c77 -77 142 -140 146 -140 3 0 35 30 72 66 61 60 67 69 67 106 0 38 -6 47 -97 140 -80 80 -105 99 -133 103 -19 3 -44 1 -55 -4z" style="fill: rgb(9, 28, 61);"/>
      <path d="M9351 3832 c-357 -350 -329 -307 -330 -503 -1 -124 -1 -123 127 -115 53 3 113 6 132 6 32 0 59 24 357 322 l323 323 -137 137 c-76 76 -142 138 -148 138 -5 0 -151 -139 -324 -308z" style="fill: rgb(9, 28, 61);"/>
      <rect x="7500" y="-7140" width="1300" height="230" style="stroke-width: 0px; paint-order: stroke; stroke: rgba(255, 255, 255, 0.9); fill: rgb(8, 197, 167);" rx="150.047" ry="150.047" transform="matrix(1, 0, 0, -1, 0, 0)"/>
      <rect x="7500" y="-6640" width="1300" height="230" style="stroke-width: 0; paint-order: stroke; stroke: rgba(255, 255, 255, 0.9); fill: rgb(8, 197, 167);" rx="150.047" ry="150.047" transform="matrix(1, 0, 0, -1, 0, 0)"/>
      <rect x="7500" y="-6140" width="900" height="230" style="stroke-width: 0; paint-order: stroke; stroke: rgba(255, 255, 255, 0.9); fill: rgb(8, 197, 167);" rx="150.047" ry="150.047" transform="matrix(1, 0, 0, -1, 0, 0)"/>
    </g>
  </g>
  <g transform="matrix(1, 0, 0, 1, 0, -10)"/>
</svg>